<?xml version="1.0" standalone="no"?>
<!DOCTYPE svg PUBLIC "-//W3C//DTD SVG 20010904//EN"
 "http://www.w3.org/TR/2001/REC-SVG-20010904/DTD/svg10.dtd">
<svg version="1.0" xmlns="http://www.w3.org/2000/svg"
 width="800.000000pt" height="480.000000pt" viewBox="0 0 800.000000 480.000000"
 preserveAspectRatio="xMidYMid meet">
<metadata>
Created by potrace 1.11, written by Peter Selinger 2001-2013
</metadata>
<g transform="translate(0.000000,480.000000) scale(0.100000,-0.100000)"
fill="#000000" stroke="none">
<path d="M2360 2413 c0 -37 -3 -44 -12 -35 -17 17 -74 15 -92 -4 -11 -10 -16
-34 -16 -69 0 -35 5 -59 16 -69 18 -19 75 -21 92 -4 9 9 12 9 12 0 0 -7 5 -12
10 -12 6 0 10 47 10 120 0 73 -4 120 -10 120 -5 0 -10 -21 -10 -47z"/>
<path d="M3740 2413 c0 -37 -3 -44 -12 -35 -17 17 -74 15 -92 -4 -11 -10 -16
-34 -16 -69 0 -35 5 -59 16 -69 18 -19 75 -21 92 -4 9 9 12 9 12 0 0 -7 5 -12
10 -12 6 0 10 47 10 120 0 73 -4 120 -10 120 -5 0 -10 -21 -10 -47z"/>
<path d="M916 2374 c-9 -8 -16 -20 -16 -25 0 -15 27 -10 34 7 4 10 16 14 38
12 27 -2 34 -8 36 -28 3 -24 1 -25 -38 -22 -48 5 -70 -10 -70 -49 0 -37 25
-50 89 -47 l51 2 0 67 c0 80 -13 99 -70 99 -22 0 -45 -7 -54 -16z"/>
<path d="M1293 2308 c18 -68 26 -84 43 -86 17 -3 22 6 33 63 7 36 16 65 20 65
4 0 14 -28 22 -62 12 -50 18 -63 34 -63 14 0 23 13 36 56 29 100 30 109 16
109 -9 0 -19 -22 -27 -57 -19 -91 -25 -93 -45 -14 -13 55 -21 71 -35 71 -14 0
-22 -16 -35 -70 -9 -38 -18 -70 -20 -70 -2 0 -11 32 -20 70 -10 42 -22 70 -30
70 -10 0 -8 -19 8 -82z"/>
<path d="M2436 2374 c-11 -10 -16 -34 -16 -69 0 -65 16 -85 69 -85 59 0 74 17
74 85 0 45 -4 61 -18 72 -26 18 -90 17 -109 -3z"/>
<path d="M2616 2374 c-22 -21 -22 -117 0 -139 22 -22 103 -17 118 7 5 9 7 21
2 25 -4 4 -12 0 -17 -10 -14 -24 -75 -23 -89 2 -18 36 -12 41 50 41 l60 0 0
35 c0 24 -6 37 -19 45 -29 15 -87 12 -105 -6z"/>
<path d="M3246 2374 c-11 -10 -16 -34 -16 -69 0 -65 16 -85 69 -85 59 0 74 17
74 85 0 45 -4 61 -18 72 -26 18 -90 17 -109 -3z"/>
<path d="M3816 2374 c-22 -21 -22 -117 0 -139 22 -22 103 -17 118 7 5 9 7 21
2 25 -4 4 -12 0 -17 -10 -14 -24 -75 -23 -89 2 -18 36 -12 41 50 41 l60 0 0
35 c0 24 -6 37 -19 45 -29 15 -87 12 -105 -6z"/>
<path d="M4426 2374 c-11 -10 -16 -34 -16 -69 0 -65 16 -85 69 -85 59 0 74 17
74 85 0 45 -4 61 -18 72 -26 18 -90 17 -109 -3z"/>
<path d="M4820 2305 c0 -69 3 -85 15 -85 12 0 15 14 15 64 0 70 12 90 52 84
21 -3 23 -8 26 -75 2 -56 6 -73 17 -73 12 0 15 15 15 63 0 67 10 87 45 87 35
0 45 -20 45 -87 0 -35 4 -63 10 -63 17 0 12 136 -6 154 -18 19 -57 21 -86 5
-14 -8 -23 -8 -31 0 -15 15 -60 14 -75 -1 -9 -9 -12 -9 -12 0 0 7 -7 12 -15
12 -12 0 -15 -16 -15 -85z"/>
<path d="M5136 2374 c-22 -21 -22 -117 0 -139 22 -22 103 -17 118 7 5 9 7 21
2 25 -4 4 -12 0 -17 -10 -14 -24 -75 -23 -89 2 -18 36 -12 41 50 41 l60 0 0
35 c0 24 -6 37 -19 45 -29 15 -87 12 -105 -6z"/>
<path d="M5476 2374 c-11 -10 -16 -34 -16 -69 0 -65 16 -85 69 -85 59 0 74 17
74 85 0 45 -4 61 -18 72 -26 18 -90 17 -109 -3z"/>
<path d="M6130 2305 c0 -69 3 -85 15 -85 12 0 15 14 15 64 0 70 12 90 52 84
21 -3 23 -8 26 -75 2 -56 6 -73 17 -73 12 0 15 15 15 63 0 67 10 87 45 87 35
0 45 -20 45 -87 0 -35 4 -63 10 -63 17 0 12 136 -6 154 -18 19 -57 21 -86 5
-14 -8 -23 -8 -31 0 -15 15 -60 14 -75 -1 -9 -9 -12 -9 -12 0 0 7 -7 12 -15
12 -12 0 -15 -16 -15 -85z"/>
<path d="M6446 2374 c-9 -8 -16 -20 -16 -25 0 -15 27 -10 34 7 4 10 16 14 38
12 27 -2 34 -8 36 -28 3 -24 1 -25 -38 -22 -48 5 -70 -10 -70 -49 0 -37 25
-50 89 -47 l51 2 0 67 c0 48 -5 72 -16 83 -20 21 -88 21 -108 0z"/>
<path d="M6776 2374 c-22 -21 -22 -117 0 -139 22 -22 103 -17 118 7 5 9 7 21
2 25 -4 4 -12 0 -17 -10 -14 -24 -75 -23 -89 2 -18 36 -12 41 50 41 l60 0 0
35 c0 24 -6 37 -19 45 -29 15 -87 12 -105 -6z"/>
<path d="M7200 2305 c0 -69 3 -85 15 -85 12 0 15 14 15 64 0 70 12 90 52 84
21 -3 23 -8 26 -75 2 -56 6 -73 17 -73 12 0 15 15 15 63 0 67 10 87 45 87 35
0 45 -20 45 -87 0 -35 4 -63 10 -63 17 0 12 136 -6 154 -18 19 -57 21 -86 5
-14 -8 -23 -8 -31 0 -15 15 -60 14 -75 -1 -9 -9 -12 -9 -12 0 0 7 -7 12 -15
12 -12 0 -15 -16 -15 -85z"/>
<path d="M7516 2374 c-22 -21 -22 -117 0 -139 22 -22 103 -17 118 7 5 9 7 21
2 25 -4 4 -12 0 -17 -10 -14 -24 -75 -23 -89 2 -18 36 -12 41 50 41 l60 0 0
35 c0 24 -6 37 -19 45 -29 15 -87 12 -105 -6z"/>
<path d="M500 1926 c0 -11 15 -16 53 -18 l52 -3 3 -142 c2 -117 5 -143 17
-143 12 0 15 26 17 143 l3 142 53 3 c37 2 52 7 52 18 0 11 -23 14 -125 14
-102 0 -125 -3 -125 -14z"/>
<path d="M780 1780 c0 -131 3 -160 14 -160 11 0 15 21 18 90 3 99 9 110 64
110 47 0 54 -15 54 -112 0 -83 1 -88 21 -88 20 0 21 4 17 96 -3 86 -5 98 -27
115 -25 21 -81 25 -112 9 -18 -10 -19 -7 -19 45 0 42 -3 55 -15 55 -13 0 -15
-24 -15 -160z"/>
<path d="M1870 1780 c0 -131 3 -160 14 -160 11 0 15 21 18 90 3 99 9 110 64
110 47 0 54 -15 54 -112 0 -83 1 -88 21 -88 20 0 21 4 17 96 -3 86 -5 98 -27
115 -25 21 -81 25 -112 9 -18 -10 -19 -7 -19 45 0 42 -3 55 -15 55 -13 0 -15
-24 -15 -160z"/>
<path d="M2440 1780 c0 -131 3 -160 14 -160 11 0 15 21 18 90 3 99 9 110 64
110 47 0 54 -15 54 -112 0 -83 1 -88 21 -88 20 0 21 4 17 96 -3 86 -5 98 -27
115 -25 21 -81 25 -112 9 -18 -10 -19 -7 -19 45 0 42 -3 55 -15 55 -13 0 -15
-24 -15 -160z"/>
<path d="M2960 1885 c0 -52 -1 -55 -19 -45 -32 17 -89 12 -110 -9 -41 -41 -34
-178 9 -201 24 -13 76 -13 101 0 13 7 19 7 19 0 0 -5 9 -10 20 -10 19 0 20 7
20 160 0 153 -1 160 -20 160 -18 0 -20 -7 -20 -55z m-12 -77 c7 -7 12 -39 12
-73 0 -71 -10 -85 -60 -85 -50 0 -60 14 -60 85 0 71 10 85 60 85 20 0 41 -5
48 -12z"/>
<path d="M4810 1885 c0 -52 -1 -55 -19 -45 -32 17 -89 12 -110 -9 -41 -41 -34
-178 9 -201 24 -13 76 -13 101 0 13 7 19 7 19 0 0 -5 9 -10 20 -10 19 0 20 7
20 160 0 153 -1 160 -20 160 -18 0 -20 -7 -20 -55z m-12 -77 c7 -7 12 -39 12
-73 0 -71 -10 -85 -60 -85 -50 0 -60 14 -60 85 0 71 10 85 60 85 20 0 41 -5
48 -12z"/>
<path d="M1270 1880 c0 -20 -5 -30 -15 -30 -8 0 -15 -7 -15 -15 0 -8 7 -15 15
-15 12 0 15 -16 15 -84 0 -94 11 -116 59 -116 35 0 58 18 67 53 5 21 3 27 -10
27 -8 0 -18 -11 -22 -25 -4 -18 -13 -25 -29 -25 -29 0 -35 16 -35 101 l0 69
45 0 c33 0 45 4 45 15 0 11 -12 15 -45 15 -43 0 -45 1 -45 30 0 20 -5 30 -15
30 -10 0 -15 -10 -15 -30z"/>
<path d="M4380 1880 c0 -20 -5 -30 -15 -30 -8 0 -15 -7 -15 -15 0 -8 7 -15 15
-15 12 0 15 -16 15 -84 0 -94 11 -116 59 -116 35 0 58 18 67 53 5 21 3 27 -10
27 -8 0 -18 -11 -22 -25 -4 -18 -13 -25 -29 -25 -29 0 -35 16 -35 101 l0 69
45 0 c33 0 45 4 45 15 0 11 -12 15 -45 15 -43 0 -45 1 -45 30 0 20 -5 30 -15
30 -10 0 -15 -10 -15 -30z"/>
<path d="M5380 1880 c0 -20 -5 -30 -15 -30 -8 0 -15 -7 -15 -15 0 -8 7 -15 15
-15 12 0 15 -16 15 -84 0 -94 11 -116 59 -116 35 0 58 18 67 53 5 21 3 27 -10
27 -8 0 -18 -11 -22 -25 -4 -18 -13 -25 -29 -25 -29 0 -35 16 -35 101 l0 69
45 0 c33 0 45 4 45 15 0 11 -12 15 -45 15 -43 0 -45 1 -45 30 0 20 -5 30 -15
30 -10 0 -15 -10 -15 -30z"/>
<path d="M1052 1834 c-24 -16 -30 -54 -9 -54 7 0 18 9 25 20 9 15 23 20 56 20
47 0 56 -9 56 -56 0 -21 -3 -23 -19 -14 -33 17 -99 12 -121 -10 -20 -20 -26
-65 -12 -86 21 -31 94 -44 133 -24 13 7 19 7 19 0 0 -5 7 -10 15 -10 12 0 15
18 15 99 0 92 -2 101 -22 115 -12 9 -43 16 -68 16 -25 0 -56 -7 -68 -16z"/>
<path d="M1550 1743 c16 -60 30 -112 30 -116 0 -5 12 -7 27 -5 25 3 29 9 45
83 26 114 29 117 45 50 30 -130 32 -135 57 -135 21 0 26 10 50 98 15 53 29
105 32 115 4 12 0 17 -13 17 -16 0 -23 -18 -44 -102 l-26 -103 -23 103 c-23
99 -24 103 -49 100 -23 -3 -27 -11 -48 -97 -12 -51 -24 -95 -26 -97 -2 -2 -14
41 -27 96 -19 80 -27 100 -41 100 -16 0 -15 -10 11 -107z"/>
<path d="M2244 1840 c-50 -20 -58 -166 -12 -204 18 -14 34 -17 76 -14 55 5 75
18 87 56 5 18 2 22 -14 22 -13 0 -21 -8 -23 -22 -2 -19 -10 -24 -46 -26 -61
-4 -72 8 -72 83 0 73 11 88 67 83 28 -2 41 -9 48 -25 12 -28 35 -30 35 -3 0
35 -35 60 -82 59 -24 0 -53 -4 -64 -9z"/>
<path d="M3079 1831 c-21 -17 -24 -27 -24 -96 0 -69 3 -79 24 -96 36 -29 115
-26 146 6 22 21 25 33 25 90 0 57 -3 69 -25 90 -31 32 -110 35 -146 6z m135
-58 c5 -24 5 -57 -1 -80 -8 -36 -11 -38 -52 -41 -60 -4 -71 9 -71 82 0 75 10
88 70 84 44 -3 45 -4 54 -45z"/>
<path d="M3319 1831 c-21 -17 -24 -27 -24 -96 0 -70 2 -79 25 -97 20 -16 35
-19 84 -16 59 4 86 22 86 55 0 21 -37 15 -43 -7 -4 -16 -14 -20 -49 -20 -51 0
-68 13 -68 52 l0 28 81 0 82 0 -6 42 c-4 27 -14 49 -27 60 -31 25 -110 24
-141 -1z"/>
<path d="M3552 1834 c-25 -17 -29 -60 -9 -87 7 -11 34 -20 72 -25 58 -7 60 -8
60 -37 0 -29 -2 -30 -52 -33 -44 -3 -52 0 -58 18 -8 26 -35 26 -35 1 0 -31 38
-51 97 -51 81 0 118 51 78 107 -12 18 -27 23 -73 25 -56 3 -57 3 -60 36 l-3
32 51 0 c36 0 52 -4 56 -15 8 -19 34 -20 34 -1 0 25 -42 46 -90 46 -25 0 -56
-7 -68 -16z"/>
<path d="M3890 1735 c0 -96 3 -115 15 -115 12 0 15 15 15 78 0 101 14 124 73
120 l42 -3 3 -97 c3 -91 4 -98 23 -98 20 0 21 5 17 101 -2 86 -6 103 -22 115
-26 19 -86 18 -114 -2 -20 -14 -22 -14 -22 0 0 9 -7 16 -15 16 -12 0 -15 -19
-15 -115z"/>
<path d="M4159 1831 c-21 -17 -24 -27 -24 -96 0 -69 3 -79 24 -96 36 -29 115
-26 146 6 22 21 25 33 25 90 0 57 -3 69 -25 90 -31 32 -110 35 -146 6z m135
-58 c5 -24 5 -57 -1 -80 -8 -36 -11 -38 -52 -41 -60 -4 -71 9 -71 82 0 75 10
88 70 84 44 -3 45 -4 54 -45z"/>
<path d="M4929 1831 c-21 -17 -24 -27 -24 -96 0 -70 2 -79 25 -97 20 -16 35
-19 84 -16 59 4 86 22 86 55 0 21 -37 15 -43 -7 -4 -16 -14 -20 -49 -20 -51 0
-68 13 -68 52 l0 28 81 0 82 0 -6 42 c-4 27 -14 49 -27 60 -31 25 -110 24
-141 -1z"/>
<path d="M5162 1834 c-25 -17 -29 -60 -9 -87 7 -11 34 -20 72 -25 58 -7 60 -8
60 -37 0 -29 -2 -30 -52 -33 -44 -3 -52 0 -58 18 -8 26 -35 26 -35 1 0 -31 38
-51 97 -51 81 0 118 51 78 107 -12 18 -27 23 -73 25 -56 3 -57 3 -60 36 l-3
32 51 0 c36 0 52 -4 56 -15 8 -19 34 -20 34 -1 0 25 -42 46 -90 46 -25 0 -56
-7 -68 -16z"/>
<path d="M5749 1831 c-21 -17 -24 -27 -24 -96 0 -69 3 -79 24 -96 36 -29 115
-26 146 6 22 21 25 33 25 90 0 57 -3 69 -25 90 -31 32 -110 35 -146 6z m135
-58 c5 -24 5 -57 -1 -80 -8 -36 -11 -38 -52 -41 -60 -4 -71 9 -71 82 0 75 10
88 70 84 44 -3 45 -4 54 -45z"/>
<path d="M5940 1847 c0 -10 70 -203 80 -219 13 -24 -5 -68 -30 -75 -23 -6 -27
-33 -6 -33 50 0 63 23 109 198 33 122 34 132 17 132 -15 0 -23 -18 -43 -102
l-24 -101 -34 99 c-24 69 -39 100 -51 102 -10 2 -18 1 -18 -1z"/>
<path d="M6280 1735 c0 -96 3 -115 15 -115 12 0 15 15 15 78 0 94 15 122 64
122 49 0 56 -14 56 -112 0 -72 3 -88 15 -88 12 0 15 16 15 84 0 96 11 116 64
116 49 0 56 -14 56 -112 0 -72 3 -88 15 -88 12 0 15 17 15 93 0 85 -2 96 -23
115 -27 25 -66 28 -105 8 -24 -12 -30 -12 -47 0 -25 19 -75 18 -103 -2 -20
-14 -22 -14 -22 0 0 9 -7 16 -15 16 -12 0 -15 -19 -15 -115z"/>
<path d="M6699 1831 c-21 -17 -24 -27 -24 -96 0 -70 2 -79 25 -97 20 -16 35
-19 84 -16 59 4 86 22 86 55 0 21 -37 15 -43 -7 -4 -16 -14 -20 -49 -20 -51 0
-68 13 -68 52 l0 28 81 0 82 0 -6 42 c-4 27 -14 49 -27 60 -31 25 -110 24
-141 -1z"/>
<path d="M7159 1831 c-21 -17 -24 -27 -24 -96 0 -69 3 -79 24 -96 36 -29 115
-26 146 6 22 21 25 33 25 90 0 57 -3 69 -25 90 -31 32 -110 35 -146 6z m135
-58 c5 -24 5 -57 -1 -80 -8 -36 -11 -38 -52 -41 -60 -4 -71 9 -71 82 0 75 10
88 70 84 44 -3 45 -4 54 -45z"/>
<path d="M7380 1735 c0 -96 3 -115 15 -115 12 0 15 15 15 78 0 101 14 124 73
120 l42 -3 3 -97 c3 -91 4 -98 23 -98 20 0 21 5 17 101 -2 86 -6 103 -22 115
-26 19 -86 18 -114 -2 -20 -14 -22 -14 -22 0 0 9 -7 16 -15 16 -12 0 -15 -19
-15 -115z"/>
<path d="M7690 1847 c0 -10 70 -203 80 -219 13 -24 -5 -68 -30 -75 -23 -6 -27
-33 -6 -33 50 0 63 23 109 198 33 122 34 132 17 132 -15 0 -23 -18 -43 -102
l-24 -101 -34 99 c-24 69 -39 100 -51 102 -10 2 -18 1 -18 -1z"/>
<path d="M500 1290 c0 -18 7 -20 65 -20 l65 0 0 -185 0 -185 25 0 25 0 0 185
0 185 65 0 c58 0 65 2 65 20 0 19 -7 20 -155 20 -148 0 -155 -1 -155 -20z"/>
<path d="M850 1105 c0 -198 1 -205 20 -205 19 0 20 7 20 109 0 120 8 140 58
142 85 4 92 -6 92 -143 0 -101 1 -108 20 -108 19 0 20 7 20 116 0 114 0 116
-29 145 -24 23 -38 29 -73 29 -24 0 -54 -7 -66 -16 l-22 -15 0 75 c0 69 -2 76
-20 76 -19 0 -20 -7 -20 -205z"/>
<path d="M2220 1105 c0 -198 1 -205 20 -205 19 0 20 7 20 109 0 120 8 140 58
142 85 4 92 -6 92 -143 0 -101 1 -108 20 -108 19 0 20 7 20 116 0 114 0 116
-29 145 -24 23 -38 29 -73 29 -24 0 -54 -7 -66 -16 l-22 -15 0 75 c0 69 -2 76
-20 76 -19 0 -20 -7 -20 -205z"/>
<path d="M2930 1105 c0 -198 1 -205 20 -205 19 0 20 7 20 109 0 120 8 140 58
142 85 4 92 -6 92 -143 0 -101 1 -108 20 -108 19 0 20 7 20 116 0 114 0 116
-29 145 -24 23 -38 29 -73 29 -24 0 -54 -7 -66 -16 l-22 -15 0 75 c0 69 -2 76
-20 76 -19 0 -20 -7 -20 -205z"/>
<path d="M3580 1236 l0 -74 -31 15 c-41 21 -114 12 -143 -16 -18 -19 -21 -33
-21 -116 0 -83 3 -97 21 -116 29 -28 102 -37 143 -16 26 13 31 13 31 1 0 -8 9
-14 20 -14 19 0 20 7 20 205 0 198 -1 205 -20 205 -18 0 -20 -7 -20 -74z m-12
-116 c17 -34 11 -145 -9 -166 -21 -21 -96 -21 -117 0 -21 21 -28 132 -10 166
24 45 112 45 136 0z"/>
<path d="M5880 1236 l0 -74 -31 15 c-41 21 -114 12 -143 -16 -18 -19 -21 -33
-21 -116 0 -83 3 -97 21 -116 29 -28 102 -37 143 -16 26 13 31 13 31 1 0 -8 9
-14 20 -14 19 0 20 7 20 205 0 198 -1 205 -20 205 -18 0 -20 -7 -20 -74z m-12
-116 c17 -34 11 -145 -9 -166 -21 -21 -96 -21 -117 0 -21 21 -28 132 -10 166
24 45 112 45 136 0z"/>
<path d="M1470 1225 c0 -28 -4 -35 -20 -35 -11 0 -20 -6 -20 -14 0 -7 9 -16
20 -19 18 -5 20 -14 20 -115 0 -103 2 -112 22 -126 30 -21 81 -20 106 2 28 23
34 85 10 90 -13 2 -18 -3 -18 -20 0 -41 -30 -63 -62 -46 -15 7 -18 24 -18 113
l0 105 50 0 c38 0 50 4 50 15 0 11 -12 15 -50 15 l-50 0 0 35 c0 28 -4 35 -20
35 -16 0 -20 -7 -20 -35z"/>
<path d="M5340 1225 c0 -28 -4 -35 -20 -35 -11 0 -20 -6 -20 -14 0 -7 9 -16
20 -19 18 -5 20 -14 20 -115 0 -103 2 -112 22 -126 30 -21 81 -20 106 2 28 23
34 85 10 90 -13 2 -18 -3 -18 -20 0 -41 -30 -63 -62 -46 -15 7 -18 24 -18 113
l0 105 50 0 c38 0 50 4 50 15 0 11 -12 15 -50 15 l-50 0 0 35 c0 28 -4 35 -20
35 -16 0 -20 -7 -20 -35z"/>
<path d="M6580 1225 c0 -28 -4 -35 -20 -35 -11 0 -20 -6 -20 -14 0 -7 9 -16
20 -19 18 -5 20 -14 20 -115 0 -103 2 -112 22 -126 30 -21 81 -20 106 2 28 23
34 85 10 90 -13 2 -18 -3 -18 -20 0 -41 -30 -63 -62 -46 -15 7 -18 24 -18 113
l0 105 50 0 c38 0 50 4 50 15 0 11 -12 15 -50 15 l-50 0 0 35 c0 28 -4 35 -20
35 -16 0 -20 -7 -20 -35z"/>
<path d="M1200 1184 c-21 -9 -40 -35 -40 -56 0 -25 36 -23 43 1 6 24 64 37
104 24 24 -8 28 -16 31 -52 3 -40 2 -42 -17 -32 -35 19 -115 13 -145 -10 -21
-16 -26 -29 -26 -64 0 -61 24 -86 87 -92 35 -4 61 0 82 10 26 13 31 13 31 1 0
-8 9 -14 21 -14 20 0 21 4 18 120 -5 149 -14 163 -111 167 -35 1 -70 0 -78 -3z
m137 -160 c17 -24 16 -38 -5 -64 -13 -16 -29 -22 -64 -22 -58 -1 -78 14 -78
59 0 25 5 36 23 43 34 15 109 5 124 -16z"/>
<path d="M1819 1048 l38 -143 31 -3 c35 -4 33 -8 69 156 10 45 20 82 23 82 3
0 18 -54 33 -121 l28 -120 32 3 c31 3 31 4 63 123 18 66 35 130 39 143 5 20 2
23 -17 20 -19 -3 -26 -18 -53 -128 -34 -134 -33 -133 -60 -15 -32 144 -33 145
-64 145 -29 0 -29 -1 -57 -117 -15 -65 -30 -121 -33 -125 -3 -4 -19 49 -35
118 -27 113 -31 124 -52 124 l-22 0 37 -142z"/>
<path d="M2680 1178 c-40 -22 -51 -54 -48 -145 4 -112 19 -128 119 -128 65 0
73 2 95 28 30 35 32 77 4 77 -13 0 -20 -7 -20 -18 0 -38 -24 -55 -76 -54 -65
1 -84 24 -84 101 0 82 7 100 43 109 52 13 100 1 107 -28 3 -14 14 -26 23 -28
25 -5 23 50 -3 73 -26 24 -124 31 -160 13z"/>
<path d="M3738 1179 c-33 -13 -48 -53 -48 -134 0 -88 14 -121 57 -136 53 -17
142 -7 163 19 34 42 32 204 -3 240 -20 19 -128 27 -169 11z m140 -42 c18 -15
16 -171 -3 -187 -19 -15 -113 -16 -128 -1 -15 15 -21 139 -8 173 7 18 19 28
38 30 36 5 84 -2 101 -15z"/>
<path d="M4040 1178 c-40 -22 -51 -54 -48 -145 4 -112 19 -128 122 -128 82 0
116 18 116 62 0 31 -37 32 -42 1 -4 -27 -51 -38 -106 -27 -42 9 -43 9 -49 58
l-6 41 103 0 102 0 -4 56 c-3 33 -11 62 -21 72 -22 21 -132 28 -167 10z"/>
<path d="M4320 1177 c-26 -13 -37 -57 -26 -102 7 -28 51 -45 115 -45 52 0 71
-13 71 -46 0 -32 -24 -46 -79 -46 -57 0 -71 6 -71 33 0 14 -7 19 -26 19 -24 0
-25 -3 -19 -27 12 -50 29 -58 116 -58 73 0 83 2 100 24 24 29 25 82 1 111 -14
17 -32 23 -92 28 l-75 7 0 35 c0 30 4 35 31 41 48 9 96 -1 101 -22 7 -24 43
-25 43 -1 0 9 -4 22 -8 29 -20 32 -134 44 -182 20z"/>
<path d="M4730 1045 c0 -138 1 -145 20 -145 19 0 20 7 20 104 0 126 11 147 78
148 67 1 72 -8 72 -138 0 -107 1 -114 20 -114 19 0 20 7 20 120 0 115 -1 122
-25 145 -29 29 -93 34 -139 10 -35 -19 -37 -19 -30 0 4 10 0 15 -15 15 -20 0
-21 -4 -21 -145z"/>
<path d="M5078 1179 c-33 -13 -48 -53 -48 -134 0 -88 14 -121 57 -136 53 -17
142 -7 163 19 34 42 32 204 -3 240 -20 19 -128 27 -169 11z m140 -42 c18 -15
16 -171 -3 -187 -19 -15 -113 -16 -128 -1 -15 15 -21 139 -8 173 7 18 19 28
38 30 36 5 84 -2 101 -15z"/>
<path d="M6040 1178 c-40 -22 -51 -54 -48 -145 4 -112 19 -128 122 -128 82 0
116 18 116 62 0 31 -37 32 -42 1 -4 -27 -51 -38 -106 -27 -42 9 -43 9 -49 58
l-6 41 103 0 102 0 -4 56 c-3 33 -11 62 -21 72 -22 21 -132 28 -167 10z"/>
<path d="M6320 1177 c-26 -13 -37 -57 -26 -102 7 -28 51 -45 115 -45 52 0 71
-13 71 -46 0 -32 -24 -46 -79 -46 -57 0 -71 6 -71 33 0 14 -7 19 -26 19 -24 0
-25 -3 -19 -27 12 -50 29 -58 116 -58 73 0 83 2 100 24 24 29 25 82 1 111 -14
17 -32 23 -92 28 l-75 7 0 35 c0 30 4 35 31 41 48 9 96 -1 101 -22 7 -24 43
-25 43 -1 0 9 -4 22 -8 29 -20 32 -134 44 -182 20z"/>
<path d="M6780 1045 c0 -138 1 -145 20 -145 19 0 20 7 20 98 0 117 12 146 58
150 38 4 62 -12 62 -39 0 -13 7 -19 21 -19 18 0 20 4 14 33 -12 61 -81 88
-133 51 -20 -14 -22 -14 -22 0 0 9 -9 16 -20 16 -19 0 -20 -7 -20 -145z"/>
<path d="M7058 1179 c-33 -13 -48 -53 -48 -134 0 -88 14 -121 57 -136 53 -17
142 -7 163 19 34 42 32 204 -3 240 -20 19 -128 27 -169 11z m140 -42 c18 -15
16 -171 -3 -187 -19 -15 -113 -16 -128 -1 -15 15 -21 139 -8 173 7 18 19 28
38 30 36 5 84 -2 101 -15z"/>
<path d="M7280 1187 c0 -9 90 -262 101 -282 14 -29 -4 -72 -36 -87 -30 -14
-33 -38 -4 -38 33 0 60 19 74 53 14 35 95 328 95 346 0 6 -8 11 -19 11 -15 0
-23 -16 -40 -87 -12 -49 -27 -106 -33 -128 l-11 -40 -42 125 c-35 105 -45 126
-63 128 -12 2 -22 1 -22 -1z"/>
<path d="M7700 1045 c0 -138 1 -145 20 -145 19 0 20 7 20 103 0 67 4 109 13
120 18 25 70 37 98 23 23 -11 24 -17 27 -129 2 -106 4 -117 21 -117 17 0 19
11 23 109 5 114 14 141 49 141 12 0 19 7 19 20 0 11 -3 20 -6 20 -10 0 -49
-23 -56 -33 -3 -6 -17 -1 -33 12 -42 32 -122 25 -147 -13 -5 -6 -8 -1 -8 12 0
15 -6 22 -20 22 -19 0 -20 -7 -20 -145z"/>
<path d="M500 515 c0 -25 1 -25 80 -25 l80 0 0 -215 0 -215 25 0 25 0 0 215 0
215 80 0 c79 0 80 0 80 25 l0 25 -185 0 -185 0 0 -25z"/>
<path d="M910 300 l0 -240 25 0 25 0 0 109 c0 123 12 168 47 182 37 14 86 11
111 -7 21 -14 22 -22 22 -150 l0 -134 25 0 25 0 0 140 c0 135 -1 142 -24 165
-41 41 -146 46 -187 9 -18 -17 -19 -14 -19 74 0 91 0 92 -25 92 l-25 0 0 -240z"/>
<path d="M2540 300 l0 -240 25 0 25 0 0 109 c0 123 12 168 47 182 37 14 86 11
111 -7 21 -14 22 -22 22 -150 l0 -134 25 0 25 0 0 140 c0 135 -1 142 -24 165
-41 41 -146 46 -187 9 -18 -17 -19 -14 -19 74 0 91 0 92 -25 92 l-25 0 0 -240z"/>
<path d="M3400 300 l0 -240 25 0 25 0 0 109 c0 123 12 168 47 182 37 14 86 11
111 -7 21 -14 22 -22 22 -150 l0 -134 25 0 25 0 0 140 c0 135 -1 142 -24 165
-41 41 -146 46 -187 9 -18 -17 -19 -14 -19 74 0 91 0 92 -25 92 l-25 0 0 -240z"/>
<path d="M4180 455 l0 -86 -30 16 c-63 32 -160 13 -187 -39 -23 -43 -23 -188
0 -232 28 -54 132 -72 195 -34 32 20 32 20 32 0 0 -13 7 -20 20 -20 19 0 20 7
20 240 l0 240 -25 0 c-25 0 -25 -1 -25 -85z m-25 -120 c22 -22 25 -32 25 -105
0 -73 -3 -83 -25 -105 -34 -35 -96 -35 -130 0 -23 22 -25 32 -25 107 0 46 4
88 8 94 27 40 111 46 147 9z"/>
<path d="M6930 455 l0 -86 -30 16 c-63 32 -160 13 -187 -39 -23 -43 -23 -188
0 -232 28 -54 132 -72 195 -34 32 20 32 20 32 0 0 -13 7 -20 20 -20 19 0 20 7
20 240 l0 240 -25 0 c-25 0 -25 -1 -25 -85z m-25 -120 c22 -22 25 -32 25 -105
0 -73 -3 -83 -25 -105 -34 -35 -96 -35 -130 0 -23 22 -25 32 -25 107 0 46 4
88 8 94 27 40 111 46 147 9z"/>
<path d="M1650 440 c0 -33 -3 -40 -20 -40 -13 0 -20 -7 -20 -20 0 -13 7 -20
20 -20 19 0 20 -7 20 -115 0 -123 9 -157 47 -174 70 -32 143 5 143 74 0 28 -4
35 -20 35 -15 0 -20 -7 -20 -24 0 -48 -52 -73 -84 -40 -13 12 -16 39 -16 130
l0 114 65 0 c58 0 65 2 65 20 0 18 -7 20 -65 20 l-65 0 0 40 c0 36 -2 40 -25
40 -22 0 -25 -4 -25 -40z"/>
<path d="M6290 440 c0 -33 -3 -40 -20 -40 -13 0 -20 -7 -20 -20 0 -13 7 -20
20 -20 19 0 20 -7 20 -115 0 -123 9 -157 47 -174 70 -32 143 5 143 74 0 28 -4
35 -20 35 -15 0 -20 -7 -20 -24 0 -48 -52 -73 -84 -40 -13 12 -16 39 -16 130
l0 114 65 0 c58 0 65 2 65 20 0 18 -7 20 -65 20 l-65 0 0 40 c0 36 -2 40 -25
40 -22 0 -25 -4 -25 -40z"/>
<path d="M7770 440 c0 -33 -3 -40 -20 -40 -13 0 -20 -7 -20 -20 0 -13 7 -20
20 -20 19 0 20 -7 20 -115 0 -123 9 -157 47 -174 70 -32 143 5 143 74 0 28 -4
35 -20 35 -15 0 -20 -7 -20 -24 0 -48 -52 -73 -84 -40 -13 12 -16 39 -16 130
l0 114 65 0 c58 0 65 2 65 20 0 18 -7 20 -65 20 l-65 0 0 40 c0 36 -2 40 -25
40 -22 0 -25 -4 -25 -40z"/>
<path d="M1340 393 c-30 -11 -50 -37 -50 -65 0 -21 5 -28 20 -28 11 0 20 5 20
10 0 49 133 72 164 28 9 -12 16 -39 16 -60 l0 -37 -35 15 c-67 28 -169 9 -192
-36 -29 -57 -5 -130 48 -149 44 -15 103 -14 144 3 31 13 35 13 35 0 0 -8 10
-14 25 -14 l25 0 0 129 c0 71 -4 141 -10 156 -6 15 -24 32 -45 40 -33 15 -135
19 -165 8z m148 -179 c22 -15 30 -57 14 -80 -25 -38 -129 -47 -162 -14 -11 11
-20 31 -20 45 0 42 33 65 93 65 31 0 61 -6 75 -16z"/>
<path d="M2051 293 c16 -60 37 -136 45 -171 l16 -62 38 0 38 0 33 138 c28 122
49 183 49 141 0 -7 14 -74 31 -146 l32 -133 37 0 37 0 43 158 c24 86 45 163
48 170 3 10 -3 13 -24 10 -27 -3 -29 -6 -64 -148 -20 -79 -39 -140 -42 -135
-3 6 -20 72 -38 148 l-32 137 -37 0 -37 0 -34 -145 c-18 -80 -37 -142 -40
-138 -4 4 -23 70 -41 146 -32 134 -34 137 -60 137 l-27 0 29 -107z"/>
<path d="M2910 230 l0 -170 25 0 25 0 0 170 0 170 -25 0 -25 0 0 -170z"/>
<path d="M3104 386 c-19 -8 -36 -27 -45 -47 -17 -40 -17 -181 0 -222 14 -35
64 -57 131 -57 90 0 140 34 140 94 0 21 -5 26 -25 26 -21 0 -25 -5 -25 -30 0
-40 -28 -53 -98 -48 -74 6 -82 19 -82 130 0 109 13 128 90 128 52 0 90 -23 90
-55 0 -9 9 -15 25 -15 28 0 29 4 14 50 -8 22 -22 37 -45 46 -42 18 -129 17
-170 0z"/>
<path d="M4372 385 c-18 -8 -37 -26 -44 -42 -15 -38 -15 -202 1 -231 26 -48
151 -69 226 -38 41 18 55 59 54 161 0 99 -15 137 -59 152 -48 16 -138 15 -178
-2z m171 -44 c16 -16 17 -205 0 -222 -21 -21 -119 -24 -148 -5 -24 16 -25 21
-25 116 0 91 2 100 23 115 26 19 129 17 150 -4z"/>
<path d="M4730 382 c-29 -14 -37 -26 -48 -67 -14 -52 -9 -154 8 -201 15 -39
71 -57 158 -52 83 6 111 24 115 74 2 23 -2 30 -19 32 -16 2 -23 -4 -28 -22 -9
-36 -40 -49 -104 -44 -64 6 -82 23 -82 80 l0 38 121 0 122 0 -7 58 c-7 63 -31
103 -67 113 -48 14 -134 9 -169 -9z m169 -38 c5 -5 13 -26 16 -46 l7 -38 -96
0 -96 0 0 34 c0 50 29 68 103 64 31 -3 61 -9 66 -14z"/>
<path d="M5074 386 c-49 -21 -60 -96 -21 -141 19 -23 32 -27 102 -32 90 -6
105 -14 105 -52 0 -45 -14 -55 -83 -59 -69 -4 -97 10 -97 49 0 14 -7 19 -25
19 -20 0 -25 -5 -25 -26 0 -59 41 -84 140 -84 68 0 117 15 130 40 6 10 10 39
10 64 0 66 -29 86 -126 86 -64 0 -75 3 -88 22 -37 52 -9 88 69 88 66 0 85 -7
85 -31 0 -14 7 -19 26 -19 22 0 25 4 22 28 -2 19 -13 32 -38 44 -42 22 -141
23 -186 4z"/>
<path d="M5560 230 l0 -170 24 0 c24 0 24 0 28 125 4 148 13 165 95 172 82 8
87 -2 91 -161 l4 -136 24 0 c24 0 24 0 24 113 0 122 -10 181 -34 205 -9 9 -40
17 -75 20 -48 3 -67 0 -96 -16 -34 -21 -35 -21 -35 -2 0 15 -7 20 -25 20 l-25
0 0 -170z"/>
<path d="M5982 385 c-18 -8 -37 -26 -44 -42 -15 -38 -15 -202 1 -231 26 -48
151 -69 226 -38 41 18 55 59 54 161 0 99 -15 137 -59 152 -48 16 -138 15 -178
-2z m171 -44 c16 -16 17 -205 0 -222 -21 -21 -119 -24 -148 -5 -24 16 -25 21
-25 116 0 91 2 100 23 115 26 19 129 17 150 -4z"/>
<path d="M7120 382 c-29 -14 -37 -26 -48 -67 -14 -52 -9 -154 8 -201 15 -39
71 -57 158 -52 83 6 111 24 115 74 2 23 -2 30 -19 32 -16 2 -23 -4 -28 -22 -9
-36 -40 -49 -104 -44 -64 6 -82 23 -82 80 l0 38 121 0 122 0 -7 58 c-7 63 -31
103 -67 113 -48 14 -134 9 -169 -9z m169 -38 c5 -5 13 -26 16 -46 l7 -38 -96
0 -96 0 0 34 c0 50 29 68 103 64 31 -3 61 -9 66 -14z"/>
<path d="M7464 386 c-49 -21 -60 -96 -21 -141 19 -23 32 -27 102 -32 90 -6
105 -14 105 -52 0 -45 -14 -55 -83 -59 -69 -4 -97 10 -97 49 0 14 -7 19 -25
19 -20 0 -25 -5 -25 -26 0 -59 41 -84 140 -84 68 0 117 15 130 40 6 10 10 39
10 64 0 66 -29 86 -126 86 -64 0 -75 3 -88 22 -37 52 -9 88 69 88 66 0 85 -7
85 -31 0 -14 7 -19 26 -19 22 0 25 4 22 28 -2 19 -13 32 -38 44 -42 22 -141
23 -186 4z"/>
</g>
</svg>
